# xmcd
# 
# Track frame offsets:
#     150
#     21413
#     36900
#     60475
#     79117
#     95781
#     107846
#     120282
#     138720
#     159909
# 
# Disc length: 2517
# 
# Revision: 0
# Processed by: cddbd v1.5.2PL0 Copyright (c) Steve Scherf et al.
# Submitted via: fre:ac v1.0.17
# 
DISCID=8009d30a
DTITLE=Norah Jones - House of Blues, Chicago, April 16, 2002
DYEAR=2002
DGENRE=Blues
TTITLE0=Cold Cold Heart
TTITLE1=Feeling the Same Way
TTITLE2=Tennessee Waltz
TTITLE3=I've Got to See You Again
TTITLE4=Don't Know Why
TTITLE5=Seven Years
TTITLE6=Painter Song
TTITLE7=Bessie Smith
TTITLE8=Crazy
TTITLE9=Nearness of You
EXTD=
EXTT0=
EXTT1=
EXTT2=
EXTT3=
EXTT4=
EXTT5=
EXTT6=
EXTT7=
EXTT8=
EXTT9=
PLAYORDER=
